<svg width="22" height="17" viewBox="0 0 22 17" fill="none" xmlns="http://www.w3.org/2000/svg">
<path d="M1.86643 2.43525C3.40924 0.819187 5.74381 0 8.80415 0H9.9038V2.99519L9.01968 3.16625C7.51315 3.45738 6.46518 4.03006 5.90436 4.8705C5.61173 5.32326 5.44577 5.84167 5.42271 6.375H8.80415C9.09579 6.375 9.37549 6.48694 9.58172 6.6862C9.78795 6.88546 9.9038 7.15571 9.9038 7.4375V14.875C9.9038 16.0469 8.91741 17 7.70449 17H1.10657C0.814922 17 0.535221 16.8881 0.328996 16.6888C0.12277 16.4895 0.00691444 16.2193 0.00691444 15.9375V10.625L0.0102134 7.52356C0.00031654 7.40563 -0.208618 4.61125 1.86643 2.43525ZM19.8007 17H13.2028C12.9111 17 12.6314 16.8881 12.4252 16.6888C12.219 16.4895 12.1031 16.2193 12.1031 15.9375V10.625L12.1064 7.52356C12.0965 7.40563 11.8876 4.61125 13.9626 2.43525C15.5054 0.819187 17.84 0 20.9003 0H22V2.99519L21.1159 3.16625C19.6094 3.45738 18.5614 4.03006 18.0006 4.8705C17.7079 5.32326 17.542 5.84167 17.5189 6.375H20.9003C21.192 6.375 21.4717 6.48694 21.6779 6.6862C21.8841 6.88546 22 7.15571 22 7.4375V14.875C22 16.0469 21.0136 17 19.8007 17Z" fill="#163E50"/>
</svg>
