<svg width="22" height="17" viewBox="0 0 22 17" fill="none" xmlns="http://www.w3.org/2000/svg">
<path d="M20.1336 14.5648C18.5908 16.1808 16.2562 17 13.1959 17H12.0962V14.0048L12.9803 13.8338C14.4868 13.5426 15.5348 12.9699 16.0956 12.1295C16.3883 11.6767 16.5542 11.1583 16.5773 10.625H13.1959C12.9042 10.625 12.6245 10.5131 12.4183 10.3138C12.2121 10.1145 12.0962 9.84429 12.0962 9.5625V2.125C12.0962 0.953062 13.0826 0 14.2955 0H20.8934C21.1851 0 21.4648 0.11194 21.671 0.311199C21.8772 0.510456 21.9931 0.780708 21.9931 1.0625V6.375L21.9898 9.47644C21.9997 9.59437 22.2086 12.3888 20.1336 14.5648ZM2.19931 0H8.79724C9.08888 0 9.36858 0.11194 9.57481 0.311199C9.78103 0.510456 9.89689 0.780708 9.89689 1.0625V6.375L9.89359 9.47644C9.90349 9.59437 10.1124 12.3888 8.03737 14.5648C6.49456 16.1808 4.15999 17 1.09966 17H0V14.0048L0.884123 13.8338C2.39065 13.5426 3.43862 12.9699 3.99944 12.1295C4.29207 11.6767 4.45803 11.1583 4.48109 10.625H1.09966C0.808008 10.625 0.528307 10.5131 0.322081 10.3138C0.115856 10.1145 0 9.84429 0 9.5625V2.125C0 0.953062 0.986391 0 2.19931 0Z" fill="#163E50"/>
</svg>
