<svg xmlns="http://www.w3.org/2000/svg" xmlns:xlink="http://www.w3.org/1999/xlink" viewBox="0 0 481.6 186.65"><defs><style>.cls-1{isolation:isolate;}.cls-2{fill:url(#Degradado_sin_nombre_33);}.cls-3{fill:#9cf5fe;}.cls-4{fill:#163e50;}.cls-5{fill:#320c54;}.cls-6,.cls-7{opacity:0.5;}.cls-16,.cls-6,.cls-7{mix-blend-mode:lighten;}.cls-6{fill:url(#Degradado_sin_nombre_54);}.cls-7{fill:url(#Degradado_sin_nombre_54-2);}.cls-8{fill:url(#Degradado_sin_nombre_66);}.cls-9{fill:url(#Degradado_sin_nombre_65);}.cls-10{fill:url(#Áåçûìÿííûé_ãðàäèåíò_88);}.cls-11{fill:#4b95fa;}.cls-12{fill:#67e2e8;}.cls-13{opacity:0.52;}.cls-14{fill:#e28c61;}.cls-15{fill:#fff;}.cls-17{fill:url(#Degradado_sin_nombre_17);}.cls-18{fill:url(#Áåçûìÿííûé_ãðàäèåíò_88-2);}.cls-19{fill:url(#Degradado_sin_nombre_17-2);}.cls-20,.cls-25,.cls-26,.cls-27,.cls-28,.cls-29,.cls-30,.cls-31,.cls-32{fill:#81dafe;}.cls-21,.cls-22,.cls-23,.cls-24{fill:#99f1fe;}.cls-22,.cls-28{opacity:0.6;}.cls-23,.cls-29{opacity:0.4;}.cls-24,.cls-31{opacity:0.2;}.cls-25{opacity:0.9;}.cls-26{opacity:0.8;}.cls-27{opacity:0.7;}.cls-30,.cls-33{opacity:0.3;}.cls-32{opacity:0.1;}.cls-33{fill:#fe4ffe;}</style><linearGradient id="Degradado_sin_nombre_33" x1="64.02" y1="165.07" x2="417.2" y2="165.07" gradientUnits="userSpaceOnUse"><stop offset="0" stop-color="#2c7da0"/><stop offset="0.34" stop-color="#53a5f8"/><stop offset="0.38" stop-color="#6abdfa"/><stop offset="0.42" stop-color="#7dd2fc"/><stop offset="0.47" stop-color="#88defe"/><stop offset="0.51" stop-color="#8ce2fe"/><stop offset="0.56" stop-color="#79cefc"/><stop offset="0.67" stop-color="#53a5f8"/><stop offset="0.7" stop-color="#4ea0ed"/><stop offset="0.83" stop-color="#3c8dc3"/><stop offset="0.94" stop-color="#3081a9"/><stop offset="1" stop-color="#2c7da0"/></linearGradient><linearGradient id="Degradado_sin_nombre_54" x1="294.46" y1="102.7" x2="383.13" y2="102.7" gradientUnits="userSpaceOnUse"><stop offset="0.11" stop-color="#2c7da0"/><stop offset="0.2" stop-color="#256a88" stop-opacity="0.7"/><stop offset="0.31" stop-color="#1f5770" stop-opacity="0.4"/><stop offset="0.4" stop-color="#1a495e" stop-opacity="0.18"/><stop offset="0.48" stop-color="#174154" stop-opacity="0.05"/><stop offset="0.53" stop-color="#163e50" stop-opacity="0"/></linearGradient><linearGradient id="Degradado_sin_nombre_54-2" x1="120.59" y1="102.3" x2="292.93" y2="102.3" gradientTransform="matrix(-1, 0, 0, 1, 303.98, 0)" xlink:href="#Degradado_sin_nombre_54"/><radialGradient id="Degradado_sin_nombre_66" cx="235.91" cy="33.83" r="101.89" gradientUnits="userSpaceOnUse"><stop offset="0" stop-color="#86e1fe"/><stop offset="0.06" stop-color="#7ed8f6"/><stop offset="0.34" stop-color="#5bb1d1"/><stop offset="0.6" stop-color="#4194b6"/><stop offset="0.83" stop-color="#3283a6"/><stop offset="1" stop-color="#2c7da0"/></radialGradient><radialGradient id="Degradado_sin_nombre_65" cx="265.51" cy="60.33" r="87.75" gradientUnits="userSpaceOnUse"><stop offset="0" stop-color="#2c7da0"/><stop offset="1" stop-color="#163e50"/></radialGradient><radialGradient id="Áåçûìÿííûé_ãðàäèåíò_88" cx="301.96" cy="23.02" r="123.45" gradientUnits="userSpaceOnUse"><stop offset="0" stop-color="#9cf5fe"/><stop offset="0.25" stop-color="#99f2fe"/><stop offset="0.44" stop-color="#8fe9fd"/><stop offset="0.61" stop-color="#7fd9fd"/><stop offset="0.76" stop-color="#69c3fc"/><stop offset="0.91" stop-color="#4ba6fa"/><stop offset="0.94" stop-color="#449ffa"/></radialGradient><linearGradient id="Degradado_sin_nombre_17" x1="373.99" y1="61.09" x2="433.44" y2="106.92" xlink:href="#Degradado_sin_nombre_65"/><radialGradient id="Áåçûìÿííûé_ãðàäèåíò_88-2" cx="169.79" cy="40.35" r="90.86" xlink:href="#Áåçûìÿííûé_ãðàäèåíò_88"/><linearGradient id="Degradado_sin_nombre_17-2" x1="176.31" y1="61.09" x2="235.75" y2="106.92" gradientTransform="matrix(-1, 0, 0, 1, 283.48, 0)" xlink:href="#Degradado_sin_nombre_65"/></defs><g class="cls-1"><g id="Ñëîé_1" data-name="Ñëîé 1"><rect class="cls-2" x="64.02" y="164.26" width="353.17" height="1.62"/><rect class="cls-3" x="175.14" y="-27.47" width="130.5" height="253.04" rx="16.25" transform="translate(141.56 339.44) rotate(-90)"/><rect class="cls-4" x="177.77" y="-24.85" width="125.25" height="247.79" rx="14.56" transform="translate(141.56 339.44) rotate(-90)"/><path class="cls-5" d="M123.32,89.77v18.55a1,1,0,0,1-1,1h0a1,1,0,0,1-1-1V89.77a1,1,0,0,1,1-1h0A1,1,0,0,1,123.32,89.77Z" transform="translate(0.22 0)"/><polygon class="cls-6" points="308.75 140.13 383.13 140.13 383.13 65.26 294.46 65.65 294.46 140.13 308.75 140.13"/><polygon class="cls-7" points="169.09 139.74 94.72 139.74 94.72 64.86 183.39 65.26 183.39 139.74 169.09 139.74"/><path class="cls-8" d="M251.19,101.53a8.41,8.41,0,0,0-7.26-7.33,8.29,8.29,0,0,0-4.84.84,18.74,18.74,0,0,1-8.48,2.23,1.83,1.83,0,0,1-1.83-1.83V65.26H198.6a1.84,1.84,0,0,0-1.84,1.83h0A18.74,18.74,0,0,0,199,75.57a8.37,8.37,0,1,1-14.81-.19,17.41,17.41,0,0,0,2.13-8.28h0a1.83,1.83,0,0,0-1.84-1.83H154.3v70.13a4.34,4.34,0,0,0,4.34,4.35h70.14V109.56a1.83,1.83,0,0,1,1.83-1.83h0a17.33,17.33,0,0,1,8.27,2.12,8.27,8.27,0,0,0,4,1A8.37,8.37,0,0,0,251.19,101.53Z" transform="translate(0.22 0)"/><path class="cls-9" d="M299.57,65.65a1.83,1.83,0,0,1-1.83-1.83h0a17.23,17.23,0,0,1,2.13-8.27,8.37,8.37,0,1,0-14.82-.2,18.74,18.74,0,0,1,2.23,8.48,1.83,1.83,0,0,1-1.83,1.83H255.27V95.83a1.84,1.84,0,0,0,1.83,1.84,18.67,18.67,0,0,0,8.48-2.23,8.37,8.37,0,1,1-.19,14.81,17.35,17.35,0,0,0-8.28-2.13h0a1.83,1.83,0,0,0-1.83,1.84v30.17h70.14a4.34,4.34,0,0,0,4.34-4.34V65.65Z" transform="translate(0.22 0)"/><path class="cls-10" d="M308.37,21c2.41.88,10.52,4.69,15.44,5.61,0,0-8.61,5.43-11.51,7.44s-4.43,12.87-8.1,18.73-5.24,9.77-3.33,11.54,3,1.57,3,1.57-2.26,4-.37,7.31c1.24,2.2,5.07,2.92,8.56,3.23s16.42,3.73,19.36,5.31,3.59,2,9.18,3.41c0,0,12.36,12,21.27,14.43,6.28,1.72,14.87,1.09,24.21,4.49,0-1,.09-1.92.19-2.91,1.58-16.21,11.49-33.57,23.08-41.49-10.46-8.7-23.83-20.93-32.45-33,0,0-3.66-2.48-6-3.88s-.57-3.91-8.05-6.83c-2.5-1-4.51-1-5.83-1.47-2.62-1-3.24-2.08-4.74-3.56,0,0-3.1-1.09-3.9-2.36A5.32,5.32,0,0,0,343.24,6a3.36,3.36,0,0,0-2.67,2.76,58.75,58.75,0,0,0-6-2.09c-1.9-.42-5.87-3.87-7.52-5.43s-6-2-6.79.4,1.5,7.54,5.36,10.32a30,30,0,0,1-7.05-.71c-4.38-.88-5.3-.36-8.45-1.18A11.56,11.56,0,0,1,306,8.4c-1.45-.69-6.47-2.46-7.69,1.84S301.2,17,302,17.31,306,20.09,308.37,21Zm21.48,22.4s3.74.62,4.44,0c0,0,.49,6.43,2.57,9.15s-3.43,8-6.33,8.62-5.73,1.1-12.34-.64a20.94,20.94,0,0,0-3.43-.39,23,23,0,0,1,2.08-3.57c.82-.93,4.51-5.3,5.23-9.45C322.07,47.08,328.82,45.57,329.85,43.37Z" transform="translate(0.22 0)"/><path class="cls-11" d="M362.19,96.46c-5.38-1.9-17-10.5-21.59-11.34,0,0,12.36,12,21.27,14.43,4.76,1.3,10.84,1.26,17.58,2.64l-2.75-4.31S367.56,98.36,362.19,96.46Z" transform="translate(0.22 0)"/><path class="cls-12" d="M328.77,44.52a3.22,3.22,0,0,0,1.08-1.15l.57.08c-3.48-1-5.4-5.19-5.4-5.19C324.79,41.4,328.76,44.51,328.77,44.52Z" transform="translate(0.22 0)"/><path class="cls-12" d="M334.29,43.36s.07.89.26,2.15h0c.94-3.44-.29-8.1-.29-8.1.25,2.1-1,6.21-1,6.22A1.88,1.88,0,0,0,334.29,43.36Z" transform="translate(0.22 0)"/><path class="cls-12" d="M321.75,48.36a9.58,9.58,0,0,0,.32-1.28s.59-.13,1.43-.37c0,0-5.65-.08-9.65-3.39A15.44,15.44,0,0,0,321.75,48.36Z" transform="translate(0.22 0)"/><g class="cls-13"><path class="cls-14" d="M315.76,60.13a8.73,8.73,0,0,0,1.47.2C316.77,60.26,316.23,60.18,315.76,60.13Z" transform="translate(0.22 0)"/></g><path class="cls-12" d="M316.14,57.54s-10.79,3.6-12.27,8.32h0a14.72,14.72,0,0,1,10.48-5.8l.45,0c.15-.31.74-1.51,1.34-2.48Z" transform="translate(0.22 0)"/><path class="cls-12" d="M320.76,25.8s16.87-6.48,18.81-7.06l-15.76,7.84Z" transform="translate(0.22 0)"/><path class="cls-12" d="M322.28,8.55A14.54,14.54,0,0,0,325.61,12a22.81,22.81,0,0,1-3.27-.14h0l6.48.82A11.63,11.63,0,0,1,322.28,8.55Z" transform="translate(0.22 0)"/><path class="cls-12" d="M341.48,9.42c-1-.48-.48-1.71-.36-2a4,4,0,0,0-.55,1.36s-.87-.35-2-.77C339.46,8.36,341.48,9.42,341.48,9.42Z" transform="translate(0.22 0)"/><path class="cls-12" d="M303.87,65.86s5.52-7,14.75-5.26a32,32,0,0,0-5.37-1,16.9,16.9,0,0,0-5,2.23,23.09,23.09,0,0,0-2.8,2Z" transform="translate(0.22 0)"/><path class="cls-11" d="M382.56,65.73s-14.73,16.46-9.62,32.66l6.43-.06Z" transform="translate(0.22 0)"/><path class="cls-15" d="M398.28,50.33c5-2.27,9.35-2,12.61.22h0l7.18,5.15a21,21,0,0,0-4.34,1.44c-13.39,6.08-25.69,25.78-27.47,44A35.28,35.28,0,0,0,387,113.4l-7.29-5.23h0c-4.29-3.16-6.58-9.89-5.69-19C375.6,73.08,386.46,55.69,398.28,50.33Z" transform="translate(0.22 0)"/><g class="cls-16"><path class="cls-17" d="M474.87,91.75h0l0,0-.09-.06L428,57.37h0c-3.69-2.54-8.63-2.82-14.29-.25-13.39,6.08-25.69,25.78-27.47,44-1,10.31,1.57,17.94,6.44,21.51h0L439,156.6l.12.09.41.29h0c3.68,2.48,8.58,2.73,14.19.18,13.39-6.08,25.69-25.78,27.47-44C482.16,102.94,479.64,95.37,474.87,91.75Z" transform="translate(0.22 0)"/></g><path class="cls-18" d="M179.13,17.31c.83-.33,5-2.77,3.74-7.07s-6.24-2.53-7.69-1.84a11.48,11.48,0,0,1-4.12,1.71c-3.16.82-4.08.3-8.46,1.18a30,30,0,0,1-7,.71c3.86-2.78,6.2-7.93,5.36-10.32s-5.14-2-6.79-.4-5.61,5-7.52,5.43a58.75,58.75,0,0,0-6,2.09A3.36,3.36,0,0,0,137.92,6a5.33,5.33,0,0,0-5.13,2.5c-.8,1.27-3.9,2.36-3.9,2.36-1.5,1.48-2.11,2.56-4.74,3.56-1.31.49-3.33.49-5.83,1.47-7.47,2.92-5.71,5.43-8,6.83s-6,3.88-6,3.88c-8.62,12.07-22,24.3-32.45,33,11.6,7.92,21.5,25.28,23.09,41.49q.13,1.49.18,2.91c9.35-3.4,17.93-2.77,24.21-4.49,8.92-2.45,21.27-14.43,21.27-14.43,5.6-1.38,6.25-1.83,9.18-3.41s15.86-5,19.36-5.31,7.32-1,8.56-3.23c1.9-3.36-.37-7.31-.37-7.31s1.1.2,3-1.57.35-5.69-3.32-11.54S171.77,36,168.86,34s-11.51-7.44-11.51-7.44c4.92-.92,13-4.73,15.44-5.61S178.29,17.64,179.13,17.31Zm-20,29.77c.73,4.15,4.41,8.52,5.23,9.45a23.35,23.35,0,0,1,2.09,3.57,20.8,20.8,0,0,0-3.43.39c-6.61,1.74-9.45,1.27-12.35.64s-8.42-5.91-6.33-8.62,2.57-9.15,2.57-9.15c.7.63,4.44,0,4.44,0C152.34,45.57,159.09,47.08,159.09,47.08Z" transform="translate(0.22 0)"/><path class="cls-11" d="M119,96.46c5.37-1.9,17-10.5,21.58-11.34,0,0-12.35,12-21.27,14.43-4.76,1.3-10.84,1.26-17.58,2.64l2.75-4.31S113.6,98.36,119,96.46Z" transform="translate(0.22 0)"/><path class="cls-12" d="M152.39,44.52a3.22,3.22,0,0,1-1.08-1.15l-.56.08c3.47-1,5.4-5.19,5.4-5.19C156.37,41.4,152.4,44.51,152.39,44.52Z" transform="translate(0.22 0)"/><path class="cls-12" d="M146.87,43.36s-.07.89-.26,2.15h0c-.94-3.44.29-8.1.29-8.1-.25,2.1,1,6.21,1,6.22A1.88,1.88,0,0,1,146.87,43.36Z" transform="translate(0.22 0)"/><path class="cls-12" d="M159.41,48.36a11.4,11.4,0,0,1-.32-1.28s-.58-.13-1.43-.37c0,0,5.66-.08,9.65-3.39A15.44,15.44,0,0,1,159.41,48.36Z" transform="translate(0.22 0)"/><g class="cls-13"><path class="cls-14" d="M165.41,60.13a9,9,0,0,1-1.47.2C164.39,60.26,164.93,60.18,165.41,60.13Z" transform="translate(0.22 0)"/></g><path class="cls-12" d="M165,57.54s10.8,3.6,12.27,8.32h0a14.72,14.72,0,0,0-10.48-5.8l-.44,0c-.16-.31-.75-1.51-1.35-2.48Z" transform="translate(0.22 0)"/><path class="cls-12" d="M160.4,25.8s-16.86-6.48-18.8-7.06l15.75,7.84Z" transform="translate(0.22 0)"/><path class="cls-12" d="M158.88,8.55A14.16,14.16,0,0,1,155.55,12a22.81,22.81,0,0,0,3.27-.14h0l-6.48.82A11.63,11.63,0,0,0,158.88,8.55Z" transform="translate(0.22 0)"/><path class="cls-12" d="M139.68,9.42c1-.48.48-1.71.36-2a3.8,3.8,0,0,1,.55,1.36s.87-.35,2-.77C141.71,8.36,139.68,9.42,139.68,9.42Z" transform="translate(0.22 0)"/><path class="cls-12" d="M177.29,65.86s-5.52-7-14.74-5.26a31.79,31.79,0,0,1,5.36-1,16.93,16.93,0,0,1,5,2.23,23.44,23.44,0,0,1,2.79,2Z" transform="translate(0.22 0)"/><path class="cls-11" d="M98.61,65.73s14.73,16.46,9.62,32.66l-6.44-.06Z" transform="translate(0.22 0)"/><path class="cls-15" d="M82.88,50.33c-5-2.27-9.35-2-12.61.22h0l-7.19,5.15a20.81,20.81,0,0,1,4.34,1.44c13.39,6.08,25.69,25.78,27.48,44a35.51,35.51,0,0,1-.74,12.27l7.29-5.23h0c4.3-3.16,6.58-9.89,5.69-19C105.57,73.08,94.71,55.69,82.88,50.33Z" transform="translate(0.22 0)"/><path class="cls-19" d="M6.29,91.75h0l0,0,.09-.06L53.13,57.37h0c3.7-2.54,8.64-2.82,14.29-.25,13.39,6.08,25.69,25.78,27.48,44,1,10.31-1.58,17.94-6.45,21.51h0L42.19,156.6l-.11.09-.41.29h0c-3.68,2.48-8.58,2.73-14.18.18-13.4-6.08-25.7-25.78-27.48-44C-1,102.94,1.52,95.37,6.29,91.75Z" transform="translate(0.22 0)"/><rect class="cls-20" x="85.41" y="6.14" width="3.01" height="3.01" transform="translate(20.26 63.7) rotate(-45)"/><rect class="cls-20" x="89.47" y="2.08" width="3.01" height="3.01" transform="translate(24.33 65.38) rotate(-45)"/><rect class="cls-20" x="89.06" y="9.79" width="3.01" height="3.01" transform="translate(18.75 67.35) rotate(-45)"/><rect class="cls-20" x="93.12" y="5.73" width="3.01" height="3.01" transform="translate(22.81 69.03) rotate(-45)"/><rect class="cls-21" x="310" y="175.84" width="8.89" height="2.17"/><rect class="cls-22" x="323.78" y="175.84" width="8.89" height="2.17"/><rect class="cls-23" x="337.57" y="175.84" width="8.89" height="2.17"/><rect class="cls-24" x="351.35" y="175.84" width="8.89" height="2.17"/><rect class="cls-25" x="175.49" y="24.82" width="3.52" height="3.52"/><rect class="cls-20" x="186.04" y="24.82" width="3.52" height="3.52"/><rect class="cls-26" x="193.08" y="24.82" width="3.52" height="3.52"/><rect class="cls-27" x="182.53" y="24.82" width="3.52" height="3.52"/><rect class="cls-28" x="200.11" y="24.82" width="3.52" height="3.52"/><rect class="cls-29" x="189.56" y="24.82" width="3.52" height="3.52"/><rect class="cls-30" x="207.15" y="24.82" width="3.52" height="3.52"/><rect class="cls-31" x="196.6" y="24.82" width="3.52" height="3.52"/><rect class="cls-32" x="214.18" y="24.82" width="3.52" height="3.52"/><path class="cls-33" d="M244.06,176.34a2.29,2.29,0,1,1,2.28,2.29A2.28,2.28,0,0,1,244.06,176.34Z" transform="translate(0.22 0)"/><path class="cls-20" d="M233.69,176.34a2.29,2.29,0,1,1,2.28,2.29A2.28,2.28,0,0,1,233.69,176.34Z" transform="translate(0.22 0)"/><path class="cls-30" d="M238.87,184.37a2.29,2.29,0,1,1,2.29,2.28A2.29,2.29,0,0,1,238.87,184.37Z" transform="translate(0.22 0)"/></g></g></svg>